<svg xmlns="http://www.w3.org/2000/svg" width="1200" height="520" viewBox="0 0 1200 520">
<defs><linearGradient id="bg" x1="0" y1="0" x2="1" y2="1"><stop stop-color="#fbf8f0"/><stop offset="1" stop-color="#ffffff"/></linearGradient><filter id="shadow"><feDropShadow dx="0" dy="8" stdDeviation="12" flood-opacity=".10"/></filter></defs>
<rect width="1200" height="520" fill="url(#bg)"/><rect x="35" y="35" width="1130" height="450" rx="30" fill="#fff" opacity=".72" stroke="#856a37" stroke-opacity=".18" stroke-width="3"/>
<g filter="url(#shadow)"><path d="M180 330h180l70-80 70 80h520" fill="none" stroke="#137b70" stroke-width="14"/><circle cx="230" cy="330" r="28" fill="#fff" stroke="#137b70" stroke-width="10"/><circle cx="500" cy="330" r="28" fill="#fff" stroke="#137b70" stroke-width="10"/><circle cx="900" cy="330" r="28" fill="#fff" stroke="#137b70" stroke-width="10"/><rect x="290" y="175" width="620" height="90" rx="20" fill="#fff" stroke="#8eb9b2" stroke-width="5"/></g><circle cx="1085" cy="80" r="32" fill="#856a37" opacity=".13"/><circle cx="1125" cy="120" r="18" fill="#856a37" opacity=".22"/><path d="M70 455 C240 415, 350 478, 520 448 S850 420,1130 462" fill="none" stroke="#856a37" opacity=".14" stroke-width="10"/>
<circle cx="85" cy="85" r="28" fill="#856a37"/><path d="M85 68v34M68 85h34" stroke="#fff" stroke-width="8" stroke-linecap="round"/>
</svg>