<svg xmlns="http://www.w3.org/2000/svg" width="1200" height="520" viewBox="0 0 1200 520">
<defs><linearGradient id="bg" x1="0" y1="0" x2="1" y2="1"><stop stop-color="#f1faf8"/><stop offset="1" stop-color="#ffffff"/></linearGradient><filter id="shadow"><feDropShadow dx="0" dy="8" stdDeviation="12" flood-opacity=".10"/></filter></defs>
<rect width="1200" height="520" fill="url(#bg)"/><rect x="35" y="35" width="1130" height="450" rx="30" fill="#fff" opacity=".72" stroke="#0f756b" stroke-opacity=".18" stroke-width="3"/>
<g filter="url(#shadow)"><rect x="160" y="150" width="880" height="260" rx="22" fill="#fff" stroke="#8eb9b2" stroke-width="5"/><circle cx="390" cy="280" r="90" fill="#e3f2f0"/><path d="M360 170h60v70l70 120H290l70-120z" fill="#79b7ae" opacity=".9"/><rect x="610" y="205" width="280" height="28" rx="7" fill="#dcefed"/><rect x="610" y="265" width="220" height="28" rx="7" fill="#eaf4f2"/><rect x="610" y="325" width="250" height="28" rx="7" fill="#eaf4f2"/></g><circle cx="1085" cy="80" r="32" fill="#0f756b" opacity=".13"/><circle cx="1125" cy="120" r="18" fill="#0f756b" opacity=".22"/><path d="M70 455 C240 400, 350 457, 520 448 S850 420,1130 453" fill="none" stroke="#0f756b" opacity=".14" stroke-width="10"/>
<circle cx="85" cy="85" r="28" fill="#0f756b"/><path d="M85 68v34M68 85h34" stroke="#fff" stroke-width="8" stroke-linecap="round"/>
</svg>