<svg xmlns="http://www.w3.org/2000/svg" width="1200" height="520" viewBox="0 0 1200 520">
<defs><linearGradient id="bg" x1="0" y1="0" x2="1" y2="1"><stop stop-color="#f9f4f1"/><stop offset="1" stop-color="#ffffff"/></linearGradient><filter id="shadow"><feDropShadow dx="0" dy="8" stdDeviation="12" flood-opacity=".10"/></filter></defs>
<rect width="1200" height="520" fill="url(#bg)"/><rect x="35" y="35" width="1130" height="450" rx="30" fill="#fff" opacity=".72" stroke="#88594d" stroke-opacity=".18" stroke-width="3"/>
<g filter="url(#shadow)"><rect x="160" y="155" width="880" height="250" rx="20" fill="#fff" stroke="#8eb9b2" stroke-width="5"/><rect x="240" y="205" width="720" height="42" rx="8" fill="#dcefed"/><rect x="240" y="275" width="620" height="28" rx="7" fill="#eaf4f2"/><rect x="240" y="330" width="680" height="28" rx="7" fill="#eaf4f2"/></g><circle cx="1085" cy="80" r="32" fill="#88594d" opacity=".13"/><circle cx="1125" cy="120" r="18" fill="#88594d" opacity=".22"/><path d="M70 455 C240 415, 350 478, 520 448 S850 420,1130 462" fill="none" stroke="#88594d" opacity=".14" stroke-width="10"/>
<circle cx="85" cy="85" r="28" fill="#88594d"/><path d="M85 68v34M68 85h34" stroke="#fff" stroke-width="8" stroke-linecap="round"/>
</svg>