<svg xmlns="http://www.w3.org/2000/svg" viewBox="0 0 1024 576" role="img">
<defs><linearGradient id="sky" x1="0" y1="1" x2="1"><stop stop-color="#735b77"/><stop offset="1" stop-color="#f0c987"/></linearGradient></defs><rect width="1024" height="576" rx="26" fill="url(#sky)"/><circle cx="830" cy="105" r="68" fill="#ffe2a2" opacity=".85"/><circle cx="240" cy="325" r="70" fill="#e2c59d" stroke="#49382f" stroke-width="8"/><circle cx="360" cy="325" r="70" fill="#d4a279" stroke="#49382f" stroke-width="8"/><circle cx="480" cy="325" r="70" fill="#efdfbd" stroke="#49382f" stroke-width="8"/><circle cx="600" cy="325" r="70" fill="#cc8d62" stroke="#49382f" stroke-width="8"/><circle cx="720" cy="325" r="70" fill="#d8d0b6" stroke="#49382f" stroke-width="8"/><path d="M0 486 Q260 438 512 488 T1024 478 V576 H0Z" fill="#302a28" opacity=".82"/><g transform="translate(80 360)"><circle cx="90" cy="58" r="64" fill="#efd3a5"/><path d="M40 54 L58 2 L79 58 M78 48 L96 -4 L113 54 M112 48 L132 3 L143 62" fill="#8b674b" stroke="#4a382f" stroke-width="8"/><circle cx="72" cy="58" r="7"/><circle cx="106" cy="58" r="7"/><path d="M80 77 Q90 88 101 77" fill="none" stroke="#4a382f" stroke-width="5"/></g><g transform="translate(205 365)"><rect x="0" y="0" width="100" height="130" rx="18" fill="#d2a762" stroke="#4a382f" stroke-width="7"/><circle cx="50" cy="43" r="25" fill="#516e7c"/><circle cx="50" cy="94" r="21" fill="#516e7c"/></g>
</svg>