<svg xmlns="http://www.w3.org/2000/svg" viewBox="0 0 1024 576" role="img">
<defs><linearGradient id="sky" x1="0" y1="1" x2="1"><stop stop-color="#62738d"/><stop offset="1" stop-color="#dfc37b"/></linearGradient></defs><rect width="1024" height="576" rx="26" fill="url(#sky)"/><circle cx="830" cy="105" r="68" fill="#ffe2a2" opacity=".85"/><rect x="240" y="195" width="550" height="250" rx="18" fill="#4d3b31"/><rect x="285" y="230" width="160" height="160" fill="#f1dfb7"/><rect x="500" y="230" width="245" height="160" fill="#786454"/><circle cx="800" cy="310" r="64" fill="#efd3a0"/><path d="M0 486 Q260 438 512 488 T1024 478 V576 H0Z" fill="#302a28" opacity=".82"/><g transform="translate(80 360)"><circle cx="90" cy="58" r="64" fill="#efd3a5"/><path d="M40 54 L58 2 L79 58 M78 48 L96 -4 L113 54 M112 48 L132 3 L143 62" fill="#8b674b" stroke="#4a382f" stroke-width="8"/><circle cx="72" cy="58" r="7"/><circle cx="106" cy="58" r="7"/><path d="M80 77 Q90 88 101 77" fill="none" stroke="#4a382f" stroke-width="5"/></g><g transform="translate(205 365)"><rect x="0" y="0" width="100" height="130" rx="18" fill="#d2a762" stroke="#4a382f" stroke-width="7"/><circle cx="50" cy="43" r="25" fill="#516e7c"/><circle cx="50" cy="94" r="21" fill="#516e7c"/></g>
</svg>