<svg xmlns="http://www.w3.org/2000/svg" viewBox="0 0 1280 720" role="img" aria-label="窗前供桌">
  <defs>
    <linearGradient id="bg" x1="0" x2="1" y1="0" y2="1"><stop stop-color="#1c1712"/><stop offset="1" stop-color="#3b291c"/></linearGradient>
    <radialGradient id="win" cx=".5" cy=".35" r=".55"><stop stop-color="#efc36d" stop-opacity=".5"/><stop offset="1" stop-color="#000" stop-opacity="0"/></radialGradient>
  </defs>
  <rect width="1280" height="720" fill="url(#bg)"/>
  <rect width="1280" height="720" fill="url(#win)"/>
  <g transform="translate(420 60)">
    <rect width="440" height="300" rx="8" fill="#191c18" stroke="#8a6840" stroke-width="16"/>
    <path d="M220 0 V300 M0 150 H440" stroke="#8a6840" stroke-width="12"/>
    <path d="M20 240 C95 170 150 228 220 164 C300 96 355 142 420 74" stroke="#49603a" stroke-width="20" fill="none"/>
  </g>
  <g transform="translate(240 405)">
    <path d="M0 60 H800 L900 210 H80Z" fill="#6b4528"/>
    <path d="M80 210 H900 V260 H80Z" fill="#3c2517"/>
    <g transform="translate(170 55)">
      <circle cx="60" cy="60" r="54" fill="#d4a43f"/>
      <circle cx="60" cy="60" r="34" fill="#b22e28"/>
      <polygon points="60,18 72,49 105,49 78,68 88,101 60,81 32,101 42,68 15,49 48,49" fill="#f3d57b"/>
      <text x="60" y="143" fill="#f0d7ad" font-size="20" text-anchor="middle">奖章</text>
    </g>
    <g transform="translate(390 56)">
      <rect width="140" height="100" rx="10" fill="#e8d2a7"/>
      <path d="M20 32 H120 M20 58 H112 M20 82 H96" stroke="#68422a" stroke-width="6"/>
      <text x="70" y="138" fill="#f0d7ad" font-size="20" text-anchor="middle">遗书</text>
    </g>
    <g transform="translate(610 50)">
      <rect width="128" height="108" rx="12" fill="#d2b786"/>
      <rect x="18" y="18" width="92" height="62" fill="#515e49"/>
      <path d="M30 82 C50 56 76 60 100 82" fill="#2c342a"/>
      <text x="64" y="140" fill="#f0d7ad" font-size="20" text-anchor="middle">照片</text>
    </g>
  </g>
  <g transform="translate(930 386)">
    <ellipse cx="70" cy="110" rx="64" ry="18" fill="#1f1610"/>
    <path d="M20 20 H120 V98 C120 130 20 130 20 98Z" fill="#e8e1ce"/>
    <path d="M120 50 C170 52 168 100 120 98" stroke="#e8e1ce" stroke-width="16" fill="none"/>
    <text x="70" y="78" fill="#405236" font-size="20" text-anchor="middle">陈铁柱</text>
  </g>
</svg>
