<svg xmlns="http://www.w3.org/2000/svg" viewBox="0 0 700 470" role="img" aria-label="病房窗台照片">
  <rect width="700" height="470" rx="18" fill="#f2e6c9"/>
  <rect x="48" y="44" width="604" height="345" rx="8" fill="#dfeff7"/>
  <rect x="90" y="72" width="246" height="250" fill="#bfe1f4" stroke="#fff" stroke-width="12"/>
  <rect x="364" y="72" width="246" height="250" fill="#cfeaf7" stroke="#fff" stroke-width="12"/>
  <path d="M100 258c60-42 125-42 190 0M376 260c63-46 137-38 223 0" stroke="#8fc1d9" stroke-width="10" fill="none" opacity=".7"/>
  <rect x="79" y="320" width="552" height="43" fill="#fff7e6"/>
  <g transform="translate(500 270)">
    <rect x="-42" y="-75" width="80" height="98" rx="16" fill="#ffbfd3"/>
    <path d="M-23-64c26-22 49-9 45 19-3 28-40 61-45 68-6-9-43-42-45-68-3-29 19-41 45-19z" fill="#fff1f6"/>
    <path d="M-8-11h17M1-20v17" stroke="#e986a8" stroke-width="6" stroke-linecap="round"/>
  </g>
  <g transform="translate(175 330)">
    <rect x="-44" y="-54" width="88" height="65" rx="12" fill="#fff" stroke="#96c8df" stroke-width="5"/>
    <path d="M-22-22c24 18 45 18 66 0" stroke="#96c8df" stroke-width="5" fill="none"/>
    <text x="0" y="-64" text-anchor="middle" fill="#9ca6b6" font-size="16" font-family="Microsoft YaHei">窗台上的便签</text>
  </g>
  <text x="350" y="430" text-anchor="middle" fill="#8e7d78" font-size="22" font-family="KaiTi, STKaiti, serif">病房窗台，2008.8</text>
</svg>
